<svg xmlns="http://www.w3.org/2000/svg" width="56" height="60" viewBox="0 0 56 60">
    <g fill="none" fill-rule="nonzero">
        <path fill="#FFF" d="M7.594 7.352L28 27.757 48.406 7.352A31.866 31.866 0 0 0 28 0 31.866 31.866 0 0 0 7.594 7.352z"/>
        <path fill="#3CB0CB" d="M49.803 49.56A27.857 27.857 0 0 0 55.838 35H35.243l14.56 14.56zM55.838 29a27.867 27.867 0 0 0-6.035-14.561L35.243 29h20.595zM0 32c0 15.464 12.536 28 28 28a27.873 27.873 0 0 0 17.56-6.197L6.197 14.439A27.877 27.877 0 0 0 0 32z"/>
    </g>
</svg>
